<mxfile host="app.diagrams.net" modified="2022-06-15T20:35:35.673Z" agent="5.0 (Windows NT 10.0; Win64; x64) AppleWebKit/537.36 (KHTML, like Gecko) Chrome/102.0.0.0 Safari/537.36" etag="ZZCx9AeDvqsv4BdokFES" version="20.0.1" type="github">
  <diagram id="vSleIdjQe65NIkiJ4QH9" name="Page-1">
    <mxGraphModel dx="1866" dy="1650" grid="1" gridSize="10" guides="1" tooltips="1" connect="1" arrows="1" fold="1" page="1" pageScale="1" pageWidth="827" pageHeight="1169" math="0" shadow="0">
      <root>
        <mxCell id="0" />
        <mxCell id="1" parent="0" />
        <mxCell id="tBs2P21-KGIzbUS1vvNT-8" value="" style="whiteSpace=wrap;html=1;aspect=fixed;" vertex="1" parent="1">
          <mxGeometry x="20" width="190" height="190" as="geometry" />
        </mxCell>
        <mxCell id="tBs2P21-KGIzbUS1vvNT-9" value="Enquanto o jogo estiver ocorrendo" style="text;html=1;strokeColor=none;fillColor=#FF491C;align=center;verticalAlign=middle;whiteSpace=wrap;rounded=0;" vertex="1" parent="1">
          <mxGeometry x="50" y="10" width="140" height="30" as="geometry" />
        </mxCell>
        <mxCell id="tBs2P21-KGIzbUS1vvNT-1" value="" style="rounded=0;whiteSpace=wrap;html=1;" vertex="1" parent="1">
          <mxGeometry x="30" y="60" width="110" height="20" as="geometry" />
        </mxCell>
        <mxCell id="tBs2P21-KGIzbUS1vvNT-2" value="main-automatica.c" style="text;html=1;align=center;verticalAlign=middle;resizable=0;points=[];autosize=1;strokeColor=none;fillColor=#A3C8FF;" vertex="1" parent="1">
          <mxGeometry x="30" y="60" width="110" height="20" as="geometry" />
        </mxCell>
        <mxCell id="tBs2P21-KGIzbUS1vvNT-4" value="Função proximoMovimento" style="text;html=1;strokeColor=none;fillColor=#B5FFB3;align=center;verticalAlign=middle;whiteSpace=wrap;rounded=0;" vertex="1" parent="1">
          <mxGeometry x="90" y="140" width="110" height="30" as="geometry" />
        </mxCell>
        <mxCell id="tBs2P21-KGIzbUS1vvNT-11" value="" style="endArrow=classic;startArrow=classic;html=1;rounded=0;" edge="1" parent="1">
          <mxGeometry width="50" height="50" relative="1" as="geometry">
            <mxPoint x="150" y="140" as="sourcePoint" />
            <mxPoint x="120" y="80" as="targetPoint" />
          </mxGeometry>
        </mxCell>
        <mxCell id="tBs2P21-KGIzbUS1vvNT-13" value="" style="endArrow=classic;html=1;rounded=0;entryX=0.472;entryY=-0.018;entryDx=0;entryDy=0;entryPerimeter=0;" edge="1" parent="1" target="tBs2P21-KGIzbUS1vvNT-22">
          <mxGeometry width="50" height="50" relative="1" as="geometry">
            <mxPoint x="199" y="180" as="sourcePoint" />
            <mxPoint x="340" y="70" as="targetPoint" />
            <Array as="points">
              <mxPoint x="210" y="220" />
            </Array>
          </mxGeometry>
        </mxCell>
        <mxCell id="tBs2P21-KGIzbUS1vvNT-22" value="" style="rounded=0;whiteSpace=wrap;html=1;fontFamily=Times New Roman;" vertex="1" parent="1">
          <mxGeometry x="10" y="240" width="390" height="180" as="geometry" />
        </mxCell>
        <mxCell id="tBs2P21-KGIzbUS1vvNT-19" value="&lt;div style=&quot;text-align: justify;&quot;&gt;&lt;b style=&quot;&quot;&gt;&lt;font&gt;int proximoMovimento (Decisor* d, Coordenada pos, int agua, int n_lava)&lt;/font&gt;&lt;/b&gt;&lt;/div&gt;" style="text;html=1;strokeColor=none;fillColor=none;align=center;verticalAlign=middle;whiteSpace=wrap;rounded=0;fontFamily=Times New Roman;labelBackgroundColor=#C4F9FF;labelBorderColor=default;" vertex="1" parent="1">
          <mxGeometry x="-7.5" y="250" width="425" height="40" as="geometry" />
        </mxCell>
        <mxCell id="tBs2P21-KGIzbUS1vvNT-18" value="Função 01: void mapeamento." style="text;html=1;strokeColor=none;fillColor=#FFFF66;align=center;verticalAlign=middle;whiteSpace=wrap;rounded=0;fontStyle=3;fontSize=12;labelBorderColor=none;" vertex="1" parent="1">
          <mxGeometry x="30" y="290" width="225" height="30" as="geometry" />
        </mxCell>
        <mxCell id="tBs2P21-KGIzbUS1vvNT-23" value="&lt;i style=&quot;font-size: 14px;&quot;&gt;&lt;font style=&quot;font-size: 14px;&quot;&gt;Função 02: void calculaRota&lt;/font&gt;&lt;/i&gt;" style="text;html=1;strokeColor=none;fillColor=#FF6666;align=center;verticalAlign=middle;rounded=0;fontFamily=Times New Roman;fontSize=14;labelBorderColor=none;labelBackgroundColor=none;fontStyle=1" vertex="1" parent="1">
          <mxGeometry x="27.5" y="330" width="232.5" height="40" as="geometry" />
        </mxCell>
        <mxCell id="tBs2P21-KGIzbUS1vvNT-24" value="&lt;font style=&quot;font-size: 13px;&quot;&gt;retorna um número de 1 a 4, indicando qual será o próximo movimento do robô.&lt;/font&gt;" style="text;html=1;strokeColor=none;fillColor=none;align=center;verticalAlign=middle;whiteSpace=wrap;rounded=0;labelBorderColor=default;fontFamily=Times New Roman;fontSize=12;fontStyle=1;labelBackgroundColor=#C4F9FF;" vertex="1" parent="1">
          <mxGeometry x="10" y="380" width="390" height="30" as="geometry" />
        </mxCell>
        <mxCell id="tBs2P21-KGIzbUS1vvNT-29" value="" style="endArrow=classic;html=1;rounded=0;fontFamily=Times New Roman;fontSize=12;" edge="1" parent="1">
          <mxGeometry width="50" height="50" relative="1" as="geometry">
            <mxPoint x="210" y="310" as="sourcePoint" />
            <mxPoint x="450" y="220" as="targetPoint" />
            <Array as="points">
              <mxPoint x="380" y="290" />
            </Array>
          </mxGeometry>
        </mxCell>
        <mxCell id="tBs2P21-KGIzbUS1vvNT-44" value="" style="edgeStyle=orthogonalEdgeStyle;rounded=0;orthogonalLoop=1;jettySize=auto;html=1;fontFamily=Times New Roman;fontSize=14;fontColor=#000000;" edge="1" parent="1" source="tBs2P21-KGIzbUS1vvNT-30" target="tBs2P21-KGIzbUS1vvNT-39">
          <mxGeometry relative="1" as="geometry" />
        </mxCell>
        <mxCell id="tBs2P21-KGIzbUS1vvNT-30" value="" style="rounded=0;whiteSpace=wrap;html=1;labelBorderColor=none;fontFamily=Times New Roman;fontSize=12;fillColor=#FFFFFF;fontColor=default;" vertex="1" parent="1">
          <mxGeometry x="430" y="-20" width="340" height="220" as="geometry" />
        </mxCell>
        <mxCell id="tBs2P21-KGIzbUS1vvNT-31" value="Função 01." style="text;html=1;strokeColor=none;fillColor=none;align=center;verticalAlign=middle;whiteSpace=wrap;rounded=0;labelBorderColor=default;fontFamily=Times New Roman;fontSize=14;fontColor=default;fontStyle=5;labelBackgroundColor=#FFFF66;" vertex="1" parent="1">
          <mxGeometry x="440" y="-10" width="80" height="30" as="geometry" />
        </mxCell>
        <mxCell id="tBs2P21-KGIzbUS1vvNT-37" value="" style="rounded=0;whiteSpace=wrap;html=1;labelBackgroundColor=none;labelBorderColor=none;fontFamily=Times New Roman;fontSize=14;fontColor=default;fillColor=#FFFFFF;" vertex="1" parent="1">
          <mxGeometry x="460" y="30" width="270" height="120" as="geometry" />
        </mxCell>
        <mxCell id="tBs2P21-KGIzbUS1vvNT-33" value="--&amp;nbsp; Atualiza matriz de probabilidades." style="text;html=1;strokeColor=none;fillColor=none;align=center;verticalAlign=middle;whiteSpace=wrap;rounded=0;labelBackgroundColor=none;labelBorderColor=none;fontFamily=Times New Roman;fontSize=14;fontColor=default;fontStyle=4" vertex="1" parent="1">
          <mxGeometry x="432" y="30" width="300" height="30" as="geometry" />
        </mxCell>
        <mxCell id="tBs2P21-KGIzbUS1vvNT-34" value="-- Atualiza matriz do campo minado" style="text;html=1;strokeColor=none;fillColor=none;align=center;verticalAlign=middle;whiteSpace=wrap;rounded=0;labelBackgroundColor=none;labelBorderColor=none;fontFamily=Times New Roman;fontSize=14;fontColor=default;fontStyle=4" vertex="1" parent="1">
          <mxGeometry x="470" y="60" width="230" height="30" as="geometry" />
        </mxCell>
        <mxCell id="tBs2P21-KGIzbUS1vvNT-36" value="-- Atualiza a Matriz Custo." style="text;html=1;strokeColor=none;fillColor=none;align=center;verticalAlign=middle;whiteSpace=wrap;rounded=0;labelBackgroundColor=none;labelBorderColor=none;fontFamily=Times New Roman;fontSize=14;fontColor=default;fontStyle=4" vertex="1" parent="1">
          <mxGeometry x="480" y="90" width="200" height="30" as="geometry" />
        </mxCell>
        <mxCell id="tBs2P21-KGIzbUS1vvNT-38" value="STRUCT DECISOR" style="text;html=1;strokeColor=none;fillColor=none;align=center;verticalAlign=middle;whiteSpace=wrap;rounded=0;labelBackgroundColor=none;labelBorderColor=none;fontFamily=Times New Roman;fontSize=14;fontColor=#CC0066;" vertex="1" parent="1">
          <mxGeometry x="600" y="120" width="130" height="30" as="geometry" />
        </mxCell>
        <mxCell id="tBs2P21-KGIzbUS1vvNT-39" value="" style="rounded=0;whiteSpace=wrap;html=1;labelBackgroundColor=none;labelBorderColor=none;fontFamily=Times New Roman;fontSize=14;fontColor=#CC0066;fillColor=#FFFFFF;" vertex="1" parent="1">
          <mxGeometry x="432" y="280" width="338" height="210" as="geometry" />
        </mxCell>
        <mxCell id="tBs2P21-KGIzbUS1vvNT-40" value="" style="endArrow=classic;html=1;rounded=0;fontFamily=Times New Roman;fontSize=14;fontColor=#CC0066;exitX=1;exitY=0.75;exitDx=0;exitDy=0;" edge="1" parent="1" source="tBs2P21-KGIzbUS1vvNT-23">
          <mxGeometry width="50" height="50" relative="1" as="geometry">
            <mxPoint x="290" y="360" as="sourcePoint" />
            <mxPoint x="430" y="360" as="targetPoint" />
          </mxGeometry>
        </mxCell>
        <mxCell id="tBs2P21-KGIzbUS1vvNT-41" value="Função 02" style="text;html=1;strokeColor=none;fillColor=#FF6666;align=center;verticalAlign=middle;whiteSpace=wrap;rounded=0;labelBackgroundColor=none;labelBorderColor=none;fontFamily=Times New Roman;fontSize=14;fontColor=#000000;fontStyle=5" vertex="1" parent="1">
          <mxGeometry x="450" y="290" width="80" height="30" as="geometry" />
        </mxCell>
        <mxCell id="tBs2P21-KGIzbUS1vvNT-42" value="" style="rounded=0;whiteSpace=wrap;html=1;labelBackgroundColor=none;labelBorderColor=none;fontFamily=Times New Roman;fontSize=14;fontColor=#000000;fillColor=#FFFFFF;" vertex="1" parent="1">
          <mxGeometry x="460" y="340" width="280" height="120" as="geometry" />
        </mxCell>
        <mxCell id="tBs2P21-KGIzbUS1vvNT-43" value="A partir da matriz de custo e dos parâmetros da STRUCT, calcula o melhor caminho.&amp;nbsp;" style="text;html=1;strokeColor=none;fillColor=none;align=left;verticalAlign=middle;whiteSpace=wrap;rounded=0;labelBackgroundColor=none;labelBorderColor=none;fontFamily=Times New Roman;fontSize=14;fontColor=#000000;" vertex="1" parent="1">
          <mxGeometry x="470.5" y="330" width="259" height="100" as="geometry" />
        </mxCell>
        <mxCell id="tBs2P21-KGIzbUS1vvNT-45" value="STRUCT DECISOR" style="text;html=1;strokeColor=none;fillColor=none;align=center;verticalAlign=middle;whiteSpace=wrap;rounded=0;labelBackgroundColor=none;labelBorderColor=none;fontFamily=Times New Roman;fontSize=14;fontColor=#CC0066;" vertex="1" parent="1">
          <mxGeometry x="610" y="420" width="120" height="30" as="geometry" />
        </mxCell>
        <mxCell id="tBs2P21-KGIzbUS1vvNT-46" value="" style="endArrow=classic;html=1;rounded=0;fontFamily=Times New Roman;fontSize=14;fontColor=#CC0066;" edge="1" parent="1" target="tBs2P21-KGIzbUS1vvNT-22">
          <mxGeometry width="50" height="50" relative="1" as="geometry">
            <mxPoint x="430" y="485" as="sourcePoint" />
            <mxPoint x="350" y="440" as="targetPoint" />
          </mxGeometry>
        </mxCell>
      </root>
    </mxGraphModel>
  </diagram>
</mxfile>
